<svg width="26" height="26" viewBox="0 0 26 26" fill="none" xmlns="http://www.w3.org/2000/svg">
<path d="M22.9999 17.9201V20.9201C23.0011 21.1986 22.944 21.4743 22.8324 21.7294C22.7209 21.9846 22.5572 22.2137 22.352 22.402C22.1468 22.5902 21.9045 22.7336 21.6407 22.8228C21.3769 22.912 21.0973 22.9452 20.8199 22.9201C17.7428 22.5857 14.7869 21.5342 12.1899 19.8501C9.77376 18.3148 7.72527 16.2663 6.18993 13.8501C4.49991 11.2413 3.44818 8.27109 3.11993 5.1801C3.09494 4.90356 3.12781 4.62486 3.21643 4.36172C3.30506 4.09859 3.4475 3.85679 3.6347 3.65172C3.82189 3.44665 4.04974 3.28281 4.30372 3.17062C4.55771 3.05843 4.83227 3.00036 5.10993 3.0001H8.10993C8.59524 2.99532 9.06572 3.16718 9.43369 3.48363C9.80166 3.80008 10.042 4.23954 10.1099 4.7201C10.2366 5.68016 10.4714 6.62282 10.8099 7.5301C10.9445 7.88802 10.9736 8.27701 10.8938 8.65098C10.8141 9.02494 10.6288 9.36821 10.3599 9.6401L9.08993 10.9101C10.5135 13.4136 12.5864 15.4865 15.0899 16.9101L16.3599 15.6401C16.6318 15.3712 16.9751 15.1859 17.3491 15.1062C17.723 15.0264 18.112 15.0556 18.4699 15.1901C19.3772 15.5286 20.3199 15.7635 21.2799 15.8901C21.7657 15.9586 22.2093 16.2033 22.5265 16.5776C22.8436 16.9519 23.0121 17.4297 22.9999 17.9201Z" stroke="#C8C8C8" stroke-width="1.5" stroke-linecap="round" stroke-linejoin="round"/>
</svg>
