<svg width="61" height="46" viewBox="0 0 61 46" fill="none" xmlns="http://www.w3.org/2000/svg">
<path d="M60.7265 12.4585V33.7623L59.8463 33.9602C50.1158 36.207 40.3734 37.9533 30.3693 37.9533C20.3771 37.9533 10.6228 36.207 0.904191 33.9602L0.0239258 33.7623V12.4585L0.904191 12.2606C10.6347 10.0138 20.3771 8.26758 30.3812 8.26758C40.3853 8.26758 50.1277 10.0138 59.8582 12.2606L60.7265 12.4585Z" fill="white"/>
<path d="M60.7264 12.4585V33.7623L59.8461 33.9602C50.1156 36.207 40.3732 37.9533 30.381 37.9533C20.3888 37.9533 10.6345 36.207 0.91591 33.9602L0.0356445 33.7623V12.4585L0.91591 12.2606C10.6345 10.0138 20.3769 8.26758 30.381 8.26758C40.3851 8.26758 50.1275 10.0138 59.858 12.2606L60.7264 12.4585Z" fill="white"/>
<path fill-rule="evenodd" clip-rule="evenodd" d="M10.3251 16.8241L8.8501 20.1302V21.8881H9.95638V29.0709H12.9421L13.0254 25.9975L13.2633 25.8462L16.9747 29.1524H19.3538L23.0176 26.242L23.2793 26.4865V29.1524H25.7774L26.2175 28.5936V24.8101H34.5324V28.9661L34.8536 29.292L51.1147 29.2338C51.1147 29.2338 51.6024 28.7565 51.7333 28.1628C51.8641 27.5575 51.7333 24.1815 51.7333 24.1815L51.3645 23.4131L51.8879 22.8427L51.9236 17.8485L50.8768 16.8008H15.5235V20.3281L15.6662 20.5493H48.129L48.4263 20.7938V21.9579H40.2898V24.8101L48.1765 24.7519L48.4501 24.9847V26.0441L38.1368 26.1605L37.9107 26.0324L37.8632 21.923L37.0067 21.7018L23.434 21.6436C23.434 21.6436 18.4379 25.6716 18.3903 25.6832C18.3427 25.6948 17.7598 25.6134 17.7598 25.6134L13.1444 21.4341L13.1919 17.0453C13.1919 17.0453 13.073 16.8706 12.9897 16.8357C12.9065 16.7891 10.3251 16.8241 10.3251 16.8241Z" fill="#FF181F"/>
<path fill-rule="evenodd" clip-rule="evenodd" d="M55.897 16.5568V21.3065V22.5172V29.6767C35.413 33.5417 25.3375 33.5417 4.85349 29.6767V22.5172V21.3065V16.5568C25.3256 12.6918 35.4368 12.6918 55.897 16.5568ZM58.7876 22.6104V21.2134V14.0888C36.543 9.17612 24.2193 9.17612 1.96289 14.0888V21.2017V22.5987V32.1331C24.2431 37.0457 36.5074 37.0457 58.7876 32.1331V22.6104Z" fill="#FF181F"/>
</svg>
