<svg width="26" height="27" viewBox="0 0 26 27" fill="none" xmlns="http://www.w3.org/2000/svg">
<g clip-path="url(#clip0_1101_2951)">
<path d="M25 14.25C25.4142 14.25 25.75 13.9142 25.75 13.5C25.75 13.0858 25.4142 12.75 25 12.75V14.25ZM0.469669 12.9697C0.176775 13.2626 0.176775 13.7374 0.469669 14.0303L5.24264 18.8033C5.53553 19.0962 6.01041 19.0962 6.3033 18.8033C6.59619 18.5104 6.59619 18.0355 6.3033 17.7426L2.06066 13.5L6.3033 9.25736C6.59619 8.96447 6.59619 8.48959 6.3033 8.1967C6.01041 7.90381 5.53553 7.90381 5.24264 8.1967L0.469669 12.9697ZM25 12.75H1V14.25H25V12.75Z" fill="#484848"/>
</g>
<defs>
<clipPath id="clip0_1101_2951">
<rect width="26" height="26" fill="white" transform="translate(0 26.5) rotate(-90)"/>
</clipPath>
</defs>
</svg>
