<svg width="26" height="26" viewBox="0 0 26 26" fill="none" xmlns="http://www.w3.org/2000/svg">
<path d="M11.29 4.8602L2.82002 19.0002C2.64539 19.3026 2.55299 19.6455 2.55201 19.9947C2.55103 20.3439 2.64151 20.6873 2.81445 20.9907C2.98738 21.2941 3.23675 21.547 3.53773 21.7241C3.83871 21.9012 4.18082 21.9964 4.53002 22.0002H21.47C21.8192 21.9964 22.1613 21.9012 22.4623 21.7241C22.7633 21.547 23.0127 21.2941 23.1856 20.9907C23.3585 20.6873 23.449 20.3439 23.448 19.9947C23.4471 19.6455 23.3547 19.3026 23.18 19.0002L14.71 4.8602C14.5318 4.56631 14.2807 4.32332 13.9812 4.15469C13.6817 3.98605 13.3438 3.89746 13 3.89746C12.6563 3.89746 12.3184 3.98605 12.0188 4.15469C11.7193 4.32332 11.4683 4.56631 11.29 4.8602Z" stroke="#858585" stroke-width="1.5" stroke-linecap="round" stroke-linejoin="round"/>
<path d="M13 10V14" stroke="#858585" stroke-width="1.5" stroke-linecap="round" stroke-linejoin="round"/>
<path d="M13 18H13.01" stroke="#858585" stroke-width="1.5" stroke-linecap="round" stroke-linejoin="round"/>
</svg>
