<svg width="26" height="26" viewBox="0 0 26 26" fill="none" xmlns="http://www.w3.org/2000/svg">
<circle cx="10.0834" cy="10.0834" r="7.08341" stroke="#858585" stroke-width="1.5"/>
<circle cx="1.18057" cy="1.18057" r="1.18057" transform="matrix(1 0 0 -1 8.90283 11.2642)" fill="#858585"/>
<circle cx="2.36114" cy="2.36114" r="2.36114" transform="matrix(1 0 0 -1 19.528 10.083)" fill="#858585"/>
<path d="M5.95142 15.9863H5C3.89543 15.9863 3 16.8818 3 17.9863V19.8892C3 20.9937 3.89543 21.8892 5 21.8892H15.1668C16.2714 21.8892 17.1668 20.9937 17.1668 19.8892V17.9863C17.1668 16.8818 16.2714 15.9863 15.1668 15.9863H14.2154" stroke="#858585" stroke-width="1.5"/>
<path d="M17.1504 18.5215C20.5824 17.6939 24.3065 14.8704 22.6217 9.37842" stroke="#858585" stroke-width="1.5"/>
</svg>
