<svg width="26" height="26" viewBox="0 0 26 26" fill="none" xmlns="http://www.w3.org/2000/svg">
<g id="Icon / System / Desk / S / Arrow Up">
<path id="Vector 269" d="M12.25 17.75C12.25 18.1642 12.5858 18.5 13 18.5C13.4142 18.5 13.75 18.1642 13.75 17.75L12.25 17.75ZM13.5303 7.46967C13.2374 7.17678 12.7626 7.17678 12.4697 7.46967L7.6967 12.2426C7.40381 12.5355 7.40381 13.0104 7.6967 13.3033C7.98959 13.5962 8.46447 13.5962 8.75736 13.3033L13 9.06066L17.2426 13.3033C17.5355 13.5962 18.0104 13.5962 18.3033 13.3033C18.5962 13.0104 18.5962 12.5355 18.3033 12.2426L13.5303 7.46967ZM13.75 17.75L13.75 8L12.25 8L12.25 17.75L13.75 17.75Z" fill="#FF6368"/>
</g>
</svg>
