<svg width="26" height="26" viewBox="0 0 26 26" fill="none" xmlns="http://www.w3.org/2000/svg">
<g id="Icon / System / Desk/ S / Back">
<path id="Vector 269" d="M25 13.75C25.4142 13.75 25.75 13.4142 25.75 13C25.75 12.5858 25.4142 12.25 25 12.25V13.75ZM0.469669 12.4697C0.176775 12.7626 0.176775 13.2374 0.469669 13.5303L5.24264 18.3033C5.53553 18.5962 6.01041 18.5962 6.3033 18.3033C6.59619 18.0104 6.59619 17.5355 6.3033 17.2426L2.06066 13L6.3033 8.75736C6.59619 8.46447 6.59619 7.98959 6.3033 7.6967C6.01041 7.40381 5.53553 7.40381 5.24264 7.6967L0.469669 12.4697ZM25 12.25H1V13.75H25V12.25Z" fill="#484848"/>
</g>
</svg>
