<svg width="26" height="26" viewBox="0 0 26 26" fill="none" xmlns="http://www.w3.org/2000/svg">
<path d="M1 10.5C0.723858 10.5 0.5 10.7239 0.5 11C0.5 11.2761 0.723858 11.5 1 11.5L1 10.5ZM21.3536 11.3536C21.5488 11.1583 21.5488 10.8417 21.3536 10.6464L18.1716 7.46447C17.9763 7.2692 17.6597 7.2692 17.4645 7.46447C17.2692 7.65973 17.2692 7.97631 17.4645 8.17157L20.2929 11L17.4645 13.8284C17.2692 14.0237 17.2692 14.3403 17.4645 14.5355C17.6597 14.7308 17.9763 14.7308 18.1716 14.5355L21.3536 11.3536ZM1 11.5L21 11.5V10.5L1 10.5L1 11.5Z" fill="#484848"/>
</svg>
