<svg width="26" height="26" viewBox="0 0 26 26" fill="none" xmlns="http://www.w3.org/2000/svg">
<path d="M22.2099 16.8901C21.5737 18.3946 20.5787 19.7203 19.3118 20.7514C18.0449 21.7825 16.5447 22.4875 14.9424 22.8049C13.34 23.1222 11.6843 23.0422 10.1201 22.5719C8.55578 22.1015 7.13054 21.2551 5.96893 20.1067C4.80733 18.9583 3.94473 17.5428 3.45655 15.984C2.96837 14.4252 2.86948 12.7706 3.16851 11.1647C3.46755 9.55886 4.15541 8.05071 5.17196 6.77211C6.18851 5.49351 7.5028 4.4834 8.99992 3.83008" stroke="#C8C8C8" stroke-width="1.5" stroke-linecap="round" stroke-linejoin="round"/>
<path d="M23 13C23 11.6868 22.7413 10.3864 22.2388 9.17317C21.7362 7.95991 20.9997 6.85752 20.0711 5.92893C19.1425 5.00035 18.0401 4.26375 16.8268 3.7612C15.6136 3.25866 14.3132 3 13 3V13H23Z" stroke="#C8C8C8" stroke-width="1.5" stroke-linecap="round" stroke-linejoin="round"/>
</svg>
