<svg width="87" height="44" viewBox="0 0 87 44" fill="none" xmlns="http://www.w3.org/2000/svg">
<g clip-path="url(#clip0_1101_3058)">
<path d="M86.6098 6.53926V37.7849L85.3543 38.0751C71.4764 41.3705 57.5815 43.9316 43.3134 43.9316C29.0622 43.9316 15.1504 41.3705 1.2894 38.0751L0.0339355 37.7849V6.53926L1.2894 6.249C15.1673 2.9537 29.0622 0.392578 43.3303 0.392578C57.5985 0.392578 71.4934 2.9537 85.3713 6.249L86.6098 6.53926Z" fill="white"/>
<path d="M86.6098 6.53926V37.7849L85.3543 38.0751C71.4764 41.3705 57.5815 43.9316 43.3304 43.9316C29.0792 43.9316 15.1673 41.3705 1.30636 38.0751L0.0509033 37.7849V6.53926L1.30636 6.249C15.1673 2.9537 29.0622 0.392578 43.3304 0.392578C57.5985 0.392578 71.4934 2.9537 85.3713 6.249L86.6098 6.53926Z" fill="white"/>
<path fill-rule="evenodd" clip-rule="evenodd" d="M14.7262 12.9424L12.6224 17.7914V20.3696H14.2002V30.9043H18.4586L18.5774 26.3968L18.9167 26.1748L24.21 31.0238H27.6031L32.8286 26.7553L33.2018 27.1139V31.0238H36.7646L37.3923 30.2043V24.6552H49.2513V30.7507L49.7094 31.2287L72.9015 31.1434C72.9015 31.1434 73.5971 30.4433 73.7837 29.5725C73.9703 28.6847 73.7837 23.7332 73.7837 23.7332L73.2578 22.6063L74.0043 21.7697L74.0552 14.4449L72.5622 12.9082H22.1402V18.0817L22.3438 18.4061H68.6431L69.0672 18.7646V20.472H57.4627V24.6552L68.711 24.5698L69.1012 24.9113V26.4651L54.3919 26.6358L54.0696 26.448L54.0017 20.4208L52.7802 20.0964L33.4224 20.011C33.4224 20.011 26.2968 25.9187 26.2289 25.9358C26.161 25.9528 25.3297 25.8333 25.3297 25.8333L18.747 19.7037L18.8149 13.2668C18.8149 13.2668 18.6453 13.0106 18.5265 12.9594C18.4077 12.8911 14.7262 12.9424 14.7262 12.9424Z" fill="#F13D37"/>
<path fill-rule="evenodd" clip-rule="evenodd" d="M79.7217 12.5496V19.5158V21.2915V31.7921C50.5068 37.4607 36.1369 37.4607 6.92198 31.7921V21.2915V19.5158V12.5496C36.1199 6.88094 50.5407 6.88094 79.7217 12.5496ZM83.8444 21.4281V19.3792V8.92984C52.1185 1.72456 34.5421 1.72456 2.79932 8.92984V19.3621V21.411V35.3947C34.576 42.6 52.0677 42.6 83.8444 35.3947V21.4281Z" fill="#F13D37"/>
</g>
<defs>
<clipPath id="clip0_1101_3058">
<rect width="87" height="44" fill="white"/>
</clipPath>
</defs>
</svg>
