<svg width="22" height="24" viewBox="0 0 22 24" fill="none" xmlns="http://www.w3.org/2000/svg">
<circle cx="11" cy="12" r="10.5" stroke="#DF921E"/>
<path d="M8.58977 18V7.29H11.4098C12.7198 7.29 13.6898 7.555 14.3198 8.085C14.9598 8.615 15.2798 9.385 15.2798 10.395C15.2798 11.075 15.1248 11.66 14.8148 12.15C14.5048 12.63 14.0448 13 13.4348 13.26C12.8348 13.52 12.0898 13.65 11.1998 13.65H9.93977V18H8.58977ZM7.28477 15.96V14.985H12.4148V15.96H7.28477ZM7.28477 13.65V12.51H10.7198V13.65H7.28477ZM11.0048 12.51C11.6148 12.51 12.1298 12.445 12.5498 12.315C12.9798 12.185 13.3098 11.97 13.5398 11.67C13.7698 11.37 13.8848 10.96 13.8848 10.44C13.8848 9.76 13.6748 9.255 13.2548 8.925C12.8348 8.595 12.1798 8.43 11.2898 8.43H9.93977V12.51H11.0048Z" fill="#DF921E"/>
</svg>
