<svg width="12" height="12" viewBox="0 0 12 12" fill="none" xmlns="http://www.w3.org/2000/svg">
<path d="M6.75 1C6.75 0.585786 6.41421 0.25 6 0.25C5.58579 0.25 5.25 0.585786 5.25 1L6.75 1ZM5.46967 11.2803C5.76256 11.5732 6.23744 11.5732 6.53033 11.2803L11.3033 6.50736C11.5962 6.21447 11.5962 5.73959 11.3033 5.4467C11.0104 5.15381 10.5355 5.15381 10.2426 5.4467L6 9.68934L1.75736 5.4467C1.46447 5.15381 0.989592 5.15381 0.696699 5.4467C0.403806 5.73959 0.403806 6.21447 0.696699 6.50736L5.46967 11.2803ZM5.25 1L5.25 10.75L6.75 10.75L6.75 1L5.25 1Z" fill="#2D2D2D"/>
</svg>
