<svg width="26" height="26" viewBox="0 0 26 26" fill="none" xmlns="http://www.w3.org/2000/svg">
<path d="M15.7 7.30022C15.5168 7.48715 15.4141 7.73847 15.4141 8.00022C15.4141 8.26198 15.5168 8.5133 15.7 8.70022L17.3 10.3002C17.4869 10.4835 17.7382 10.5861 18 10.5861C18.2617 10.5861 18.513 10.4835 18.7 10.3002L22.47 6.53022C22.9728 7.64141 23.1251 8.87946 22.9064 10.0794C22.6878 11.2793 22.1087 12.3841 21.2463 13.2465C20.3838 14.1089 19.279 14.6881 18.0791 14.9067C16.8792 15.1253 15.6412 14.9731 14.53 14.4702L7.61998 21.3802C7.22215 21.778 6.68259 22.0015 6.11998 22.0015C5.55737 22.0015 5.0178 21.778 4.61998 21.3802C4.22215 20.9824 3.99866 20.4428 3.99866 19.8802C3.99866 19.3176 4.22215 18.778 4.61998 18.3802L11.53 11.4702C11.0271 10.359 10.8749 9.12099 11.0935 7.92108C11.3121 6.72117 11.8913 5.61638 12.7537 4.75395C13.6161 3.89151 14.7209 3.31239 15.9208 3.09377C17.1207 2.87514 18.3588 3.02739 19.47 3.53022L15.71 7.29022L15.7 7.30022Z" stroke="#FF181F" stroke-width="1.5" stroke-linecap="round" stroke-linejoin="round"/>
</svg>
