<svg width="26" height="26" viewBox="0 0 26 26" fill="none" xmlns="http://www.w3.org/2000/svg">
<path d="M8 11H5C3.89543 11 3 11.8954 3 13V13C3 14.1046 3.89543 15 5 15H21C22.1046 15 23 14.1046 23 13V13C23 11.8954 22.1046 11 21 11H18" stroke="#858585" stroke-width="1.5" stroke-linecap="round"/>
<path d="M21 11C20.4077 6.44725 17.5443 3 13 3C8.45572 3 5.59231 6.44725 5 11" stroke="#858585" stroke-width="1.5"/>
<path d="M20 15C19.4817 19.5528 16.9762 23 13 23C9.02376 23 6.51827 19.5528 6 15" stroke="#858585" stroke-width="1.5"/>
<path d="M10.25 7C10.25 7.41421 10.5858 7.75 11 7.75C11.4142 7.75 11.75 7.41421 11.75 7L10.25 7ZM10.25 3L10.25 7L11.75 7L11.75 3L10.25 3Z" fill="#858585"/>
<path d="M14.25 7C14.25 7.41421 14.5858 7.75 15 7.75C15.4142 7.75 15.75 7.41421 15.75 7L14.25 7ZM14.25 3L14.25 7L15.75 7L15.75 3L14.25 3Z" fill="#858585"/>
</svg>
