<svg width="26" height="26" viewBox="0 0 26 26" fill="none" xmlns="http://www.w3.org/2000/svg">
<path d="M17 5H19C19.5304 5 20.0391 5.21071 20.4142 5.58579C20.7893 5.96086 21 6.46957 21 7V21C21 21.5304 20.7893 22.0391 20.4142 22.4142C20.0391 22.7893 19.5304 23 19 23H7C6.46957 23 5.96086 22.7893 5.58579 22.4142C5.21071 22.0391 5 21.5304 5 21V7C5 6.46957 5.21071 5.96086 5.58579 5.58579C5.96086 5.21071 6.46957 5 7 5H9" stroke="#858585" stroke-width="1.5" stroke-linecap="round" stroke-linejoin="round"/>
<path d="M16 3H10C9.44772 3 9 3.44772 9 4V6C9 6.55228 9.44772 7 10 7H16C16.5523 7 17 6.55228 17 6V4C17 3.44772 16.5523 3 16 3Z" stroke="#858585" stroke-width="1.5" stroke-linecap="round" stroke-linejoin="round"/>
</svg>
