<svg width="26" height="26" viewBox="0 0 26 26" fill="none" xmlns="http://www.w3.org/2000/svg">
<path d="M7.12084 12.147L3.13067 15.8546C2.63779 16.3126 2.72869 17.1168 3.31136 17.4532L15.6887 24.5992C16.2713 24.9356 17.0133 24.6122 17.1634 23.9564L18.3792 18.647M7.12084 12.147L8.87084 9.11596C9.97541 7.20279 12.4218 6.54729 14.3349 7.65186L18.6651 10.1519C20.5782 11.2564 21.2337 13.7028 20.1292 15.616L18.3792 18.647M7.12084 12.147L18.3792 18.647" stroke="#858585" stroke-width="1.5"/>
<path d="M15.1048 8.09628L17.4382 2.77034C17.9166 1.67851 19.2378 1.24489 20.2701 1.8409L20.7299 2.10637C21.7623 2.70238 22.0473 4.06339 21.341 5.02358L17.8953 9.70739" stroke="#858585" stroke-width="1.5"/>
</svg>
