<svg width="26" height="26" viewBox="0 0 26 26" fill="none" xmlns="http://www.w3.org/2000/svg">
<path d="M1 12.25C0.585786 12.25 0.25 12.5858 0.25 13C0.25 13.4142 0.585786 13.75 1 13.75L1 12.25ZM25.5303 13.5303C25.8232 13.2374 25.8232 12.7626 25.5303 12.4697L20.7574 7.6967C20.4645 7.40381 19.9896 7.40381 19.6967 7.6967C19.4038 7.98959 19.4038 8.46447 19.6967 8.75736L23.9393 13L19.6967 17.2426C19.4038 17.5355 19.4038 18.0104 19.6967 18.3033C19.9896 18.5962 20.4645 18.5962 20.7574 18.3033L25.5303 13.5303ZM1 13.75L25 13.75V12.25L1 12.25L1 13.75Z" fill="#FF181F"/>
</svg>
