<svg width="26" height="26" viewBox="0 0 26 26" fill="none" xmlns="http://www.w3.org/2000/svg">
<path d="M13.75 8C13.75 7.58579 13.4142 7.25 13 7.25C12.5858 7.25 12.25 7.58579 12.25 8L13.75 8ZM12.4697 18.2803C12.7626 18.5732 13.2374 18.5732 13.5303 18.2803L18.3033 13.5074C18.5962 13.2145 18.5962 12.7396 18.3033 12.4467C18.0104 12.1538 17.5355 12.1538 17.2426 12.4467L13 16.6893L8.75736 12.4467C8.46447 12.1538 7.98959 12.1538 7.6967 12.4467C7.40381 12.7396 7.40381 13.2145 7.6967 13.5074L12.4697 18.2803ZM12.25 8L12.25 17.75L13.75 17.75L13.75 8L12.25 8Z" fill="#2D2D2D"/>
</svg>
